# File created by Blade
# Date/Time:  Fri Jan 16 17:25:32 2015
#---------------------------------------------------------
:version 1.10
:name HOM
:units
  mass 1.0
  length 1.000000
  angle deg
:documentation
     Acclaim Skeleton File
:root
   axis xyz
   order TX TY TZ RX RY RZ
   position 0.000000 0.000000 0.000000
   orientation 0 0 0
:bonedata
   begin
      id 1
      name Spine_dum
      direction 0.000000 1.000000 0.000000
      length 7.170412
      axis 0.0 0.0 0.0 xyz
   end
   begin
      id 2
      name LeftUpLeg_dum
      direction 1.000000 0.000000 0.000000
      length 4.318350
      axis 0.0 0.0 0.0 xyz
   end
   begin
      id 3
      name RightUpLeg_dum
      direction -1.000000 0.000000 0.000000
      length 4.318350
      axis 0.0 0.0 0.0 xyz
   end
   begin
      id 4
      name Spine
      direction 0.000000 1.000000 0.000000
      length 0.000000
      axis 0.0 0.0 0.0 xyz
      dof rx ry rz
   end
   begin
      id 5
      name Spine_dum1
      direction 0.000000 1.000000 0.000000
      length 14.276153
      axis 0.0 0.0 0.0 xyz
   end
   begin
      id 6
      name Spine_dum2
      direction 0.000000 1.000000 0.000000
      length 10.718243
      axis 0.0 0.0 0.0 xyz
   end
   begin
      id 7
      name Spine_dum3
      direction 0.000000 1.000000 0.000000
      length 10.718243
      axis 0.0 0.0 0.0 xyz
   end
   begin
      id 8
      name Head
      direction 0.000000 1.000000 0.000000
      length 4.527550
      axis 0.0 0.0 0.0 xyz
      dof rx ry rz
   end
   begin
      id 9
      name LeftShoulder
      direction 1.000000 0.000000 0.000000
      length 7.058872
      axis 0.0 0.0 -90.0 xyz
      dof rx ry rz
   end
   begin
      id 10
      name LeftArm
      direction 1.000000 0.000000 0.000000
      length 10.955525
      axis 0.0 0.0 -90.0 xyz
      dof rx ry rz
   end
   begin
      id 11
      name LeftForeArm
      direction 1.000000 0.000000 0.000000
      length 8.193716
      axis 0.0 0.0 -90.0 xyz
      dof ry rz rx
   end
   begin
      id 12
      name LeftHand
      direction 0.000000 0.000000 0.000000
      length 0.000000
      axis 0.0 0.0 -90.0 xyz
      dof rx ry rz
   end
   begin
      id 13
      name LeftHand_dum1
      direction 0.000000 0.000000 0.000000
      length 0.000000
      axis 0.0 0.0 -90.0 xyz
   end
   begin
      id 14
      name LeftHand_dum2
      direction 1.000000 0.000000 0.000000
      length 3.937000
      axis 0.0 0.0 -90.0 xyz
   end
   begin
      id 15
      name LeftHandThumb1
      direction 0.000000 0.000000 1.000000
      length 3.937000
      axis 0.0 0.0 -90.0 xyz
      dof rx rz ry
   end
   begin
      id 16
      name RightShoulder
      direction -1.000000 0.000000 0.000000
      length 7.058872
      axis 0.0 0.0 90.0 xyz
      dof rx ry rz
   end
   begin
      id 17
      name RightArm
      direction -1.000000 0.000000 0.000000
      length 10.955525
      axis 0.0 0.0 90.0 xyz
      dof rx ry rz
   end
   begin
      id 18
      name RightForeArm
      direction -1.000000 0.000000 0.000000
      length 8.193716
      axis 0.0 0.0 90.0 xyz
      dof ry rz rx
   end
   begin
      id 19
      name RightHand
      direction 0.000000 0.000000 0.000000
      length 0.000000
      axis 0.0 0.0 90.0 xyz
      dof rx ry rz
   end
   begin
      id 20
      name RightHand_dum1
      direction 0.000000 0.000000 0.000000
      length 0.000000
      axis 0.0 0.0 90.0 xyz
   end
   begin
      id 21
      name RightHand_dum2
      direction -1.000000 0.000000 0.000000
      length 3.937000
      axis 0.0 0.0 90.0 xyz
   end
   begin
      id 22
      name RightHandThumb1
      direction 0.000000 0.000000 1.000000
      length 3.937000
      axis 0.0 0.0 90.0 xyz
      dof rx rz ry
   end
   begin
      id 23
      name LeftUpLeg
      direction 0.000000 -1.000000 0.000000
      length 17.323638
      axis 0.0 0.0 0.0 xyz
      dof rx ry rz
   end
   begin
      id 24
      name LeftLeg
      direction 0.000000 -1.000000 0.000000
      length 16.270368
      axis 0.0 0.0 0.0 xyz
      dof rx ry rz
   end
   begin
      id 25
      name LeftFoot
      direction 0.000000 -0.258819 0.965926
      length 4.922846
      axis 15.0 0.0 0.0 xyz
      dof rx ry rz
   end
   begin
      id 26
      name LeftToeBase
      direction 0.000000 0.000000 1.000000
      length 2.952750
      axis 0.0 0.0 0.0 xyz
      dof rx ry rz
   end
   begin
      id 27
      name RightUpLeg
      direction 0.000000 -1.000000 0.000000
      length 17.323638
      axis 0.0 0.0 0.0 xyz
      dof rx ry rz
   end
   begin
      id 28
      name RightLeg
      direction 0.000000 -1.000000 0.000000
      length 16.270368
      axis 0.0 0.0 0.0 xyz
      dof rx ry rz
   end
   begin
      id 29
      name RightFoot
      direction 0.000000 -0.258819 0.965926
      length 4.922846
      axis 15.0 0.0 0.0 xyz
      dof rx ry rz
   end
   begin
      id 30
      name RightToeBase
      direction 0.000000 0.000000 1.000000
      length 2.952750
      axis 0.0 0.0 0.0 xyz
      dof rx ry rz
   end
:hierarchy
   begin
      root Spine_dum LeftUpLeg_dum RightUpLeg_dum
      Spine_dum Spine
      LeftUpLeg_dum LeftUpLeg
      RightUpLeg_dum RightUpLeg
      Spine Spine_dum1 Spine_dum2 Spine_dum3
      Spine_dum1 Head
      Spine_dum2 LeftShoulder
      Spine_dum3 RightShoulder
      LeftShoulder LeftArm
      LeftArm LeftForeArm
      LeftForeArm LeftHand
      LeftHand LeftHand_dum1 LeftHand_dum2
      LeftHand_dum1 LeftHandThumb1
      RightShoulder RightArm
      RightArm RightForeArm
      RightForeArm RightHand
      RightHand RightHand_dum1 RightHand_dum2
      RightHand_dum1 RightHandThumb1
      LeftUpLeg LeftLeg
      LeftLeg LeftFoot
      LeftFoot LeftToeBase
      RightUpLeg RightLeg
      RightLeg RightFoot
      RightFoot RightToeBase
   end

# File created by Blade
# Date/Time:  Fri Jan 16 17:25:22 2015
# Frame Rate: 120.000 fps
#------------------------------------------------------
:FULLY-SPECIFIED
:DEGREES
573
root -5.925918 35.274981 -10.758915 -5.387684 -5.030443 -5.555631
Spine 3.645789 14.202725 10.237524
Head 7.094219 -1.479339 -8.151807
LeftShoulder -15.397081 15.305030 -16.023326
LeftArm 30.445191 24.453180 -62.998088
LeftForeArm 13.239489 0.000000 12.853561
LeftHand 0.422248 -0.000000 -7.704974
LeftHandThumb1 -26.253704 0.000000 33.147579
RightShoulder 10.326254 4.426721 -2.693895
RightArm 95.740895 -59.454324 2.620921
RightForeArm -20.660149 -0.000000 39.390113
RightHand 4.288078 -0.000000 9.129222
RightHandThumb1 -24.326973 -0.000000 -32.862282
LeftUpLeg 13.616047 13.952325 8.320608
LeftLeg -8.255168 -0.000000 0.000000
LeftFoot -14.330235 28.005833 -7.971228
LeftToeBase 22.846707 -0.000000 -0.000000
RightUpLeg 10.821460 -7.736607 2.218157
RightLeg -4.227174 -0.000000 0.000000
RightFoot -4.044963 -23.824226 5.062010
RightToeBase 13.938990 -0.000000 -0.000000
574
root -5.916769 35.275783 -10.764513 -5.335355 -4.974813 -5.525070
Spine 3.589451 14.092188 10.202726
Head 7.100686 -1.410488 -8.195415
LeftShoulder -15.442900 15.311538 -16.072166
LeftArm 30.448424 24.455548 -62.970012
LeftForeArm 13.198209 -0.000000 12.876634
LeftHand 0.439577 -0.000000 -7.695725
LeftHandThumb1 -26.253704 0.000000 33.147579
RightShoulder 10.293796 4.422217 -2.675577
RightArm 95.467474 -59.510315 2.786955
RightForeArm -20.525895 -0.000000 39.245573
RightHand 4.057832 -0.000000 9.325999
RightHandThumb1 -24.326973 -0.000000 -32.862282
LeftUpLeg 13.517213 13.946867 8.253432
LeftLeg -8.222176 -0.000000 0.000000
LeftFoot -14.334413 27.987816 -7.967813
LeftToeBase 22.886285 -0.000000 -0.000000
RightUpLeg 10.747404 -7.765047 2.176267
RightLeg -4.196460 -0.000000 0.000000
RightFoot -4.062821 -23.817717 5.103771
RightToeBase 13.889565 -0.000000 -0.000000
575
root -5.918179 35.274904 -10.760417 -5.326087 -4.977338 -5.524094
Spine 3.558891 14.046046 10.177867
Head 7.127020 -1.333384 -8.165207
LeftShoulder -15.452577 15.320319 -16.038071
LeftArm 30.384865 24.435717 -63.019066
LeftForeArm 13.157088 0.000000 12.911939
LeftHand 0.439714 -0.000000 -7.681263
LeftHandThumb1 -26.253704 0.000000 33.147579
RightShoulder 10.266588 4.369637 -2.612790
RightArm 95.242487 -59.538962 2.905633
RightForeArm -20.491262 0.000000 39.012289
RightHand 3.965684 -0.000000 9.013274
RightHandThumb1 -24.326973 -0.000000 -32.862282
LeftUpLeg 13.525516 13.970814 8.257425
LeftLeg -8.240497 -0.000000 0.000000
LeftFoot -14.309710 27.966371 -7.949689
LeftToeBase 22.856590 -0.000000 -0.000000
RightUpLeg 10.746370 -7.740576 2.182184
RightLeg -4.201993 -0.000000 0.000000
RightFoot -4.071468 -23.847768 5.092424
RightToeBase 13.899579 -0.000000 -0.000000
576
root -5.920724 35.274677 -10.756145 -5.315122 -4.979773 -5.532850
Spine 3.531878 14.002715 10.164150
Head 7.147374 -1.268991 -8.147941
LeftShoulder -15.472964 15.296279 -16.010482
LeftArm 30.303925 24.443045 -63.054284
LeftForeArm 13.072778 -0.000000 12.942774
LeftHand 0.437735 -0.000000 -7.720381
LeftHandThumb1 -26.253704 0.000000 33.147579
RightShoulder 10.199131 4.356026 -2.590734
RightArm 94.887642 -59.629332 3.167398
RightForeArm -20.500114 -0.000000 38.840530
RightHand 3.996572 -0.000000 9.337374
RightHandThumb1 -24.326973 -0.000000 -32.862282
LeftUpLeg 13.534654 14.008027 8.277048
LeftLeg -8.263305 -0.000000 0.000000
LeftFoot -14.299735 27.936693 -7.951482
LeftToeBase 22.847328 -0.000000 -0.000000
RightUpLeg 10.744486 -7.741804 2.201723
RightLeg -4.212157 -0.000000 0.000000
RightFoot -4.071148 -23.891742 5.096178
RightToeBase 13.860671 -0.000000 -0.000000
577
root -5.918850 35.274497 -10.752893 -5.323076 -4.959786 -5.530068
Spine 3.535345 13.926103 10.157010
Head 7.149237 -1.209883 -8.153087
LeftShoulder -15.488287 15.324125 -16.011368
LeftArm 30.280981 24.407961 -63.080800
LeftForeArm 12.889979 -0.000000 12.939618
LeftHand 0.438194 -0.000000 -7.861209
LeftHandThumb1 -26.253704 0.000000 33.147579
RightShoulder 10.147229 4.320789 -2.558642
RightArm 94.620424 -59.670958 3.324095
RightForeArm -20.317287 -0.000000 38.587152
RightHand 3.880376 -0.000000 9.029958
RightHandThumb1 -24.326973 -0.000000 -32.862282
LeftUpLeg 13.543384 14.014789 8.275833
LeftLeg -8.266055 -0.000000 0.000000
LeftFoot -14.304693 27.919218 -7.944580
LeftToeBase 22.874246 -0.000000 -0.000000
RightUpLeg 10.762701 -7.737542 2.186450
RightLeg -4.210744 -0.000000 0.000000
RightFoot -4.070276 -23.856472 5.073458
RightToeBase 13.912103 -0.000000 -0.000000
578
root -5.918376 35.274184 -10.750314 -5.320696 -4.947397 -5.527693
Spine 3.524532 13.860191 10.141709
Head 7.159288 -1.151160 -8.144420
LeftShoulder -15.516492 15.319453 -16.011589
LeftArm 30.223848 24.347861 -63.123820
LeftForeArm 13.017072 0.000000 12.951349
LeftHand 0.487477 -0.000000 -7.574950
LeftHandThumb1 -26.253704 0.000000 33.147579
RightShoulder 10.085336 4.320512 -2.527714
RightArm 94.234354 -59.763212 3.588825
RightForeArm -20.142312 -0.000000 38.358565
RightHand 3.722256 -0.000000 9.218976
RightHandThumb1 -24.326973 -0.000000 -32.862282
LeftUpLeg 13.544990 14.016763 8.272861
LeftLeg -8.269957 -0.000000 0.000000
LeftFoot -14.300750 27.902955 -7.941201
LeftToeBase 22.874324 -0.000000 -0.000000
RightUpLeg 10.770032 -7.736029 2.186396
RightLeg -4.222351 -0.000000 0.000000
RightFoot -4.067149 -23.883723 5.071098
RightToeBase 13.918652 -0.000000 -0.000000
579
root -5.917470 35.273800 -10.747738 -5.315829 -4.941924 -5.528880
Spine 3.511820 13.790150 10.131777
Head 7.168651 -1.084166 -8.136298
LeftShoulder -15.524529 15.330702 -16.006187
LeftArm 30.164265 24.315637 -63.159185
LeftForeArm 12.925485 -0.000000 12.958261
LeftHand 0.465308 -0.000000 -7.562350
LeftHandThumb1 -26.253704 0.000000 33.147579
RightShoulder 10.041530 4.288098 -2.499636
RightArm 93.811609 -59.831119 3.885040
RightForeArm -20.116601 -0.000000 38.113313
RightHand 3.686414 0.000000 9.297597
RightHandThumb1 -24.326973 -0.000000 -32.862282
LeftUpLeg 13.544469 14.021795 8.272991
LeftLeg -8.273460 -0.000000 0.000000
LeftFoot -14.292972 27.893728 -7.927267
LeftToeBase 22.848175 -0.000000 -0.000000
RightUpLeg 10.770527 -7.723886 2.187741
RightLeg -4.225252 -0.000000 0.000000
RightFoot -4.070493 -23.897366 5.070207
RightToeBase 13.916912 -0.000000 -0.000000
580
root -5.916169 35.273835 -10.747060 -5.301189 -4.962118 -5.538768
Spine 3.494146 13.736813 10.139496
Head 7.182476 -1.019249 -8.134748
LeftShoulder -15.514946 15.366559 -16.004696
LeftArm 30.084696 24.218878 -63.233627
LeftForeArm 12.820354 -0.000000 12.974081
LeftHand 0.520687 -0.000000 -7.578854
LeftHandThumb1 -26.253704 0.000000 33.147579
RightShoulder 9.998957 4.257771 -2.466193
RightArm 93.402450 -59.908549 4.145442
RightForeArm -20.139235 -0.000000 37.872742
RightHand 3.785125 -0.000000 9.542654
RightHandThumb1 -24.326973 -0.000000 -32.862282
LeftUpLeg 13.535286 14.035267 8.278325
LeftLeg -8.270514 -0.000000 0.000000
LeftFoot -14.307607 27.902188 -7.929568
LeftToeBase 22.863209 -0.000000 -0.000000
RightUpLeg 10.751311 -7.690024 2.200397
RightLeg -4.216549 -0.000000 0.000000
RightFoot -4.074788 -23.899800 5.098452
RightToeBase 13.903287 -0.000000 -0.000000
581
root -5.913907 35.274032 -10.745328 -5.285910 -4.973169 -5.546006
Spine 3.470460 13.631833 10.135389
Head 7.185110 -0.914862 -8.116941
LeftShoulder -15.581222 15.398287 -16.031619
LeftArm 30.035948 24.099269 -63.289042
LeftForeArm 12.558266 -0.000000 13.002665
LeftHand 0.488613 -0.000000 -7.711356
LeftHandThumb1 -26.253704 0.000000 33.147579
RightShoulder 9.977059 4.216897 -2.449407
RightArm 92.810308 -60.021064 4.671435
RightForeArm -20.061718 -0.000000 37.505944
RightHand 3.777520 -0.000000 9.466697
RightHandThumb1 -24.326973 -0.000000 -32.862282
LeftUpLeg 13.529157 14.059829 8.282486
LeftLeg -8.276878 -0.000000 0.000000
LeftFoot -14.309047 27.898841 -7.919146
LeftToeBase 22.859219 -0.000000 -0.000000
RightUpLeg 10.738146 -7.668062 2.212787
RightLeg -4.223953 -0.000000 0.000000
RightFoot -4.072648 -23.940982 5.147053
RightToeBase 13.872342 -0.000000 -0.000000
582
root -5.912041 35.273682 -10.743878 -5.272048 -4.983119 -5.541571
Spine 3.453826 13.561980 10.120018
Head 7.182913 -0.856906 -8.111948
LeftShoulder -15.634277 15.374616 -16.036671
LeftArm 29.961831 24.035249 -63.347502
LeftForeArm 12.422637 -0.000000 12.990744
LeftHand 0.474751 -0.000000 -7.833895
LeftHandThumb1 -26.253704 0.000000 33.147579
RightShoulder 9.947167 4.207719 -2.430362
RightArm 92.076584 -60.148229 5.288297
RightForeArm -20.287594 0.000000 37.224196
RightHand 3.793984 -0.000000 9.721094
RightHandThumb1 -24.326973 -0.000000 -32.862282
LeftUpLeg 13.514793 14.078345 8.274237
LeftLeg -8.265888 -0.000000 0.000000
LeftFoot -14.318081 27.890211 -7.916067
LeftToeBase 22.861478 -0.000000 -0.000000
RightUpLeg 10.729359 -7.628698 2.205491
RightLeg -4.224320 -0.000000 0.000000
RightFoot -4.073413 -23.932795 5.114583
RightToeBase 13.911658 -0.000000 -0.000000
583
root -5.910396 35.273756 -10.742937 -5.254046 -4.994041 -5.548562
Spine 3.430256 13.467854 10.122499
Head 7.186925 -0.773448 -8.120839
LeftShoulder -15.706517 15.372831 -16.062465
LeftArm 29.940491 24.007544 -63.350436
LeftForeArm 12.169085 -0.000000 12.947520
LeftHand 0.442592 -0.000000 -8.054868
LeftHandThumb1 -26.253704 0.000000 33.147579
RightShoulder 9.930906 4.198168 -2.428888
RightArm 91.615786 -60.276289 5.632589
RightForeArm -19.970839 -0.000000 36.857796
RightHand 3.815755 0.000000 9.489157
RightHandThumb1 -24.326973 -0.000000 -32.862282
LeftUpLeg 13.499576 14.092718 8.278071
LeftLeg -8.260814 -0.000000 0.000000
LeftFoot -14.332433 27.883867 -7.918156
LeftToeBase 22.875560 -0.000000 -0.000000
RightUpLeg 10.710961 -7.627482 2.215975
RightLeg -4.228742 -0.000000 0.000000
RightFoot -4.063454 -23.948259 5.141675
RightToeBase 13.829578 -0.000000 -0.000000
